<svg width="17" height="17" viewBox="0 0 17 17" fill="none" xmlns="http://www.w3.org/2000/svg">
<path fill-rule="evenodd" clip-rule="evenodd" d="M15.1667 7C15.811 7 16.3333 7.52232 16.3333 8.16667C16.3333 8.81102 15.811 9.33333 15.1667 9.33333H1.16667C0.522317 9.33333 0 8.81102 0 8.16667C0 7.52232 0.522317 7 1.16667 7H15.1667Z" fill="#162521"/>
<path fill-rule="evenodd" clip-rule="evenodd" d="M8.99162 14.3417C9.4472 14.7973 9.4472 15.536 8.99162 15.9916C8.53603 16.4472 7.7973 16.4472 7.34172 15.9916L0.341717 8.99159C-0.0999835 8.54989 -0.115383 7.83869 0.3066 7.37832L6.72327 0.378322C7.15867 -0.0966277 7.8967 -0.128711 8.37165 0.306572C8.8466 0.741973 8.87868 1.48001 8.4434 1.95496L2.78145 8.13152L8.99162 14.3417Z" fill="#162521"/>
</svg>
