<svg width="22" height="21" viewBox="0 0 22 21" fill="none" xmlns="http://www.w3.org/2000/svg">
<path fill-rule="evenodd" clip-rule="evenodd" d="M1 19.3848L20.0919 10.1924L1 1L3.60643 7.77671L13.1556 9.46956L3.96806 11.6678L1 19.3848Z" fill="#FF6646"/>
<path d="M20.0919 10.1924L20.5257 11.0934C20.8718 10.9267 21.0919 10.5765 21.0919 10.1924C21.0919 9.80823 20.8718 9.45804 20.5257 9.29139L20.0919 10.1924ZM1 19.3848L0.0666544 19.0258C-0.0805341 19.4085 0.0207999 19.8423 0.322305 20.1201C0.62381 20.398 1.06439 20.4637 1.43382 20.2858L1 19.3848ZM1 1L1.43382 0.0989984C1.06439 -0.0788746 0.62381 -0.0132114 0.322305 0.264657C0.0207999 0.542525 -0.0805341 0.976289 0.0666544 1.35898L1 1ZM3.60643 7.77671L2.67308 8.13569C2.79889 8.4628 3.08678 8.70018 3.43187 8.76136L3.60643 7.77671ZM13.1556 9.46956L13.3883 10.4421C13.849 10.3319 14.1692 9.91342 14.1551 9.43986C14.1411 8.9663 13.7966 8.56761 13.3301 8.48491L13.1556 9.46956ZM3.96806 11.6678L3.73536 10.6953C3.41501 10.7719 3.15296 11.0014 3.03471 11.3088L3.96806 11.6678ZM19.6581 9.29139L0.566184 18.4838L1.43382 20.2858L20.5257 11.0934L19.6581 9.29139ZM0.566184 1.901L19.6581 11.0934L20.5257 9.29139L1.43382 0.0989984L0.566184 1.901ZM4.53977 7.41773L1.93335 0.641021L0.0666544 1.35898L2.67308 8.13569L4.53977 7.41773ZM3.43187 8.76136L12.981 10.4542L13.3301 8.48491L3.78098 6.79206L3.43187 8.76136ZM12.9229 8.49701L3.73536 10.6953L4.20076 12.6404L13.3883 10.4421L12.9229 8.49701ZM1.93335 19.7438L4.90141 12.0268L3.03471 11.3088L0.0666544 19.0258L1.93335 19.7438Z" fill="#FF6646"/>
</svg>
