<svg width="42" height="42" viewBox="0 0 42 42" fill="none" xmlns="http://www.w3.org/2000/svg">
<circle cx="21" cy="21" r="21" fill="#FF0000" fill-opacity="0.15"/>
<path d="M25 30V28C25 26.9391 24.5786 25.9217 23.8284 25.1716C23.0783 24.4214 22.0609 24 21 24H14C12.9391 24 11.9217 24.4214 11.1716 25.1716C10.4214 25.9217 10 26.9391 10 28V30" stroke="#FF0000" stroke-width="2" stroke-linecap="round" stroke-linejoin="round"/>
<path d="M17.5 20C19.7091 20 21.5 18.2091 21.5 16C21.5 13.7909 19.7091 12 17.5 12C15.2909 12 13.5 13.7909 13.5 16C13.5 18.2091 15.2909 20 17.5 20Z" stroke="#FF0000" stroke-width="2" stroke-linecap="round" stroke-linejoin="round"/>
<path d="M32 20H26" stroke="#FF0000" stroke-width="2" stroke-linecap="round" stroke-linejoin="round"/>
</svg>
