<svg width="42" height="42" viewBox="0 0 42 42" fill="none" xmlns="http://www.w3.org/2000/svg">
<path d="M26 30V28C26 26.9391 25.5786 25.9217 24.8284 25.1716C24.0783 24.4214 23.0609 24 22 24H14C12.9391 24 11.9217 24.4214 11.1716 25.1716C10.4214 25.9217 10 26.9391 10 28V30" stroke="#FF6646" stroke-width="2" stroke-linecap="round" stroke-linejoin="round"/>
<path d="M18 20C20.2091 20 22 18.2091 22 16C22 13.7909 20.2091 12 18 12C15.7909 12 14 13.7909 14 16C14 18.2091 15.7909 20 18 20Z" stroke="#FF6646" stroke-width="2" stroke-linecap="round" stroke-linejoin="round"/>
<path d="M32 29.9999V27.9999C31.9993 27.1136 31.7044 26.2527 31.1614 25.5522C30.6184 24.8517 29.8581 24.3515 29 24.1299" stroke="#FF6646" stroke-width="2" stroke-linecap="round" stroke-linejoin="round"/>
<path d="M25 12.1299C25.8604 12.3502 26.623 12.8506 27.1676 13.5522C27.7122 14.2538 28.0078 15.1167 28.0078 16.0049C28.0078 16.8931 27.7122 17.756 27.1676 18.4576C26.623 19.1592 25.8604 19.6596 25 19.8799" stroke="#FF6646" stroke-width="2" stroke-linecap="round" stroke-linejoin="round"/>
<circle cx="21" cy="21" r="21" fill="#FE6845" fill-opacity="0.15"/>
</svg>
